<svg width="10" height="3" viewBox="0 0 10 3" fill="none" xmlns="http://www.w3.org/2000/svg">
<path d="M0.344238 1.20654C0.344238 0.897624 0.424642 0.660645 0.585449 0.495605C0.746257 0.330566 0.979004 0.248047 1.28369 0.248047C1.59261 0.248047 1.82747 0.334798 1.98828 0.508301C2.14909 0.677572 2.22949 0.910319 2.22949 1.20654C2.22949 1.507 2.14697 1.74609 1.98193 1.92383C1.82113 2.09733 1.58838 2.18408 1.28369 2.18408C0.979004 2.18408 0.746257 2.09733 0.585449 1.92383C0.424642 1.75033 0.344238 1.51123 0.344238 1.20654ZM3.92432 1.20654C3.92432 0.897624 4.00472 0.660645 4.16553 0.495605C4.32633 0.330566 4.55908 0.248047 4.86377 0.248047C5.17269 0.248047 5.40755 0.334798 5.56836 0.508301C5.72917 0.677572 5.80957 0.910319 5.80957 1.20654C5.80957 1.507 5.72705 1.74609 5.56201 1.92383C5.4012 2.09733 5.16846 2.18408 4.86377 2.18408C4.55908 2.18408 4.32633 2.09733 4.16553 1.92383C4.00472 1.75033 3.92432 1.51123 3.92432 1.20654ZM7.50439 1.20654C7.50439 0.897624 7.5848 0.660645 7.74561 0.495605C7.90641 0.330566 8.13916 0.248047 8.44385 0.248047C8.75277 0.248047 8.98763 0.334798 9.14844 0.508301C9.30924 0.677572 9.38965 0.910319 9.38965 1.20654C9.38965 1.507 9.30713 1.74609 9.14209 1.92383C8.98128 2.09733 8.74854 2.18408 8.44385 2.18408C8.13916 2.18408 7.90641 2.09733 7.74561 1.92383C7.5848 1.75033 7.50439 1.51123 7.50439 1.20654Z" fill="#8C969E"/>
</svg>
