<svg width="25" height="24" viewBox="0 0 25 24" fill="none" xmlns="http://www.w3.org/2000/svg">
<path d="M12.333 3.62256C9.0193 3.62256 6.33301 6.30885 6.33301 9.62256C6.33301 11.0366 7.13454 12.5691 8.27558 14.0064C9.39984 15.4224 10.7647 16.6356 11.7014 17.3955C12.076 17.6994 12.59 17.6994 12.9646 17.3955C13.9013 16.6356 15.2662 15.4224 16.3904 14.0064C17.5315 12.5691 18.333 11.0366 18.333 9.62256C18.333 6.30885 15.6467 3.62256 12.333 3.62256ZM4.83301 9.62256C4.83301 5.48042 8.19087 2.12256 12.333 2.12256C16.4751 2.12256 19.833 5.48042 19.833 9.62256C19.833 11.5545 18.7686 13.4233 17.5652 14.939C16.345 16.4759 14.887 17.7675 13.9096 18.5604C12.9843 19.3111 11.6817 19.3111 10.7564 18.5604C9.77903 17.7675 8.32098 16.4759 7.1008 14.939C5.8974 13.4233 4.83301 11.5545 4.83301 9.62256ZM12.333 8.12256C11.5046 8.12256 10.833 8.79413 10.833 9.62256C10.833 10.451 11.5046 11.1226 12.333 11.1226C13.1614 11.1226 13.833 10.451 13.833 9.62256C13.833 8.79413 13.1614 8.12256 12.333 8.12256ZM9.33301 9.62256C9.33301 7.96571 10.6761 6.62256 12.333 6.62256C13.9899 6.62256 15.333 7.96571 15.333 9.62256C15.333 11.2795 13.9899 12.6226 12.333 12.6226C10.6761 12.6226 9.33301 11.2795 9.33301 9.62256ZM18.0146 15.969C17.6513 16.4012 17.275 16.8109 16.9013 17.1928C17.2569 17.2923 17.5882 17.4026 17.8917 17.5222C18.5867 17.7959 19.0982 18.1033 19.4235 18.4062C19.7477 18.7082 19.833 18.9508 19.833 19.1225C19.833 19.2941 19.7477 19.5367 19.4235 19.8387C19.0982 20.1416 18.5867 20.449 17.8917 20.7227C16.5064 21.2685 14.5414 21.6225 12.333 21.6225C10.1246 21.6225 8.15961 21.2685 6.77427 20.7227C6.07936 20.449 5.56778 20.1416 5.2425 19.8387C4.91831 19.5367 4.83301 19.2941 4.83301 19.1225C4.83301 18.9508 4.91831 18.7082 5.2425 18.4062C5.56778 18.1033 6.07936 17.7959 6.77427 17.5222C7.07777 17.4026 7.40908 17.2923 7.76469 17.1928C7.39103 16.8109 7.01469 16.4012 6.6514 15.969C6.50508 16.0196 6.3627 16.0721 6.22449 16.1266C5.42645 16.4409 4.72983 16.8339 4.22017 17.3086C3.70941 17.7843 3.33301 18.3967 3.33301 19.1225C3.33301 19.8482 3.70941 20.4606 4.22017 20.9363C4.72983 21.411 5.42645 21.804 6.22449 22.1184C7.82506 22.7489 9.98503 23.1225 12.333 23.1225C14.681 23.1225 16.841 22.7489 18.4415 22.1184C19.2396 21.804 19.9362 21.411 20.4458 20.9363C20.9566 20.4606 21.333 19.8482 21.333 19.1225C21.333 18.3967 20.9566 17.7843 20.4458 17.3086C19.9362 16.8339 19.2396 16.4409 18.4415 16.1266C18.3033 16.0721 18.1609 16.0196 18.0146 15.969Z" fill="#8C969E"/>
</svg>
