<svg width="164" height="40" viewBox="0 0 164 40" fill="none" xmlns="http://www.w3.org/2000/svg">
<g clip-path="url(#clip0_8395_5108)">
<path d="M47.7446 28.2463H59.4051V24.7342H51.889V11.5049H47.7446V28.2463Z" fill="#212529"/>
<path d="M66.3133 25.9048C64.6509 25.9048 63.7846 24.4531 63.7846 22.2755C63.7846 20.098 64.6509 18.6229 66.3133 18.6229C67.9758 18.6229 68.8655 20.098 68.8655 22.2755C68.8655 24.4531 67.9758 25.9048 66.3133 25.9048ZM66.3368 28.6209C70.2002 28.6209 72.7289 25.8814 72.7289 22.2755C72.7289 18.6697 70.2002 15.9302 66.3368 15.9302C62.4968 15.9302 59.9211 18.6697 59.9211 22.2755C59.9211 25.8814 62.4968 28.6209 66.3368 28.6209Z" fill="#212529"/>
<path d="M79.4162 32.3906C81.1957 32.3906 82.7644 31.9926 83.8181 31.056C84.7781 30.1897 85.4103 28.8784 85.4103 27.0755V16.258H81.7576V17.5458H81.7108C81.0084 16.5389 79.9313 15.9067 78.3391 15.9067C75.3654 15.9067 73.3049 18.3887 73.3049 21.9009C73.3049 25.577 75.8103 27.5906 78.503 27.5906C79.9547 27.5906 80.8679 27.0053 81.5703 26.2092H81.664V27.4033C81.664 28.855 80.9849 29.698 79.3693 29.698C78.1049 29.698 77.4727 29.1594 77.262 28.5272H73.5625C73.9371 31.0326 76.1147 32.3906 79.4162 32.3906ZM79.3927 24.7575C77.9644 24.7575 77.0279 23.5867 77.0279 21.7838C77.0279 19.9575 77.9644 18.7867 79.3927 18.7867C80.9849 18.7867 81.8279 20.1448 81.8279 21.7604C81.8279 23.4463 81.0552 24.7575 79.3927 24.7575Z" fill="#212529"/>
<path d="M92.921 25.9048C91.2586 25.9048 90.3922 24.4531 90.3922 22.2755C90.3922 20.098 91.2586 18.6229 92.921 18.6229C94.5834 18.6229 95.4732 20.098 95.4732 22.2755C95.4732 24.4531 94.5834 25.9048 92.921 25.9048ZM92.9444 28.6209C96.8078 28.6209 99.3361 25.8814 99.3361 22.2755C99.3361 18.6697 96.8078 15.9302 92.9444 15.9302C89.1044 15.9302 86.5288 18.6697 86.5288 22.2755C86.5288 25.8814 89.1044 28.6209 92.9444 28.6209Z" fill="#212529"/>
<path d="M100.452 28.2463H104.268V16.2581H100.452V28.2463ZM100.452 14.5956H104.268V11.5049H100.452V14.5956Z" fill="#212529"/>
<path d="M105.924 32.2033H109.74V27.0053H109.787C110.537 28.0121 111.637 28.6209 113.182 28.6209C116.32 28.6209 118.404 26.1389 118.404 22.2521C118.404 18.6463 116.46 15.9067 113.276 15.9067C111.637 15.9067 110.466 16.6326 109.647 17.7097H109.577V16.258H105.924V32.2033ZM112.199 25.6706C110.56 25.6706 109.623 24.336 109.623 22.3926C109.623 20.4492 110.466 18.9741 112.129 18.9741C113.768 18.9741 114.54 20.3321 114.54 22.3926C114.54 24.4297 113.651 25.6706 112.199 25.6706Z" fill="#212529"/>
<path d="M124.617 28.6209C127.755 28.6209 130.073 27.2628 130.073 24.6404C130.073 21.5731 127.591 21.0345 125.484 20.6833C123.962 20.4023 122.604 20.2853 122.604 19.4423C122.604 18.6931 123.33 18.3419 124.266 18.3419C125.32 18.3419 126.046 18.6697 126.186 19.7467H129.698C129.511 17.3819 127.685 15.9067 124.29 15.9067C121.456 15.9067 119.115 17.218 119.115 19.7467C119.115 22.5565 121.339 23.1184 123.423 23.4697C125.015 23.7506 126.467 23.8677 126.467 24.9448C126.467 25.7175 125.741 26.1389 124.594 26.1389C123.33 26.1389 122.533 25.5536 122.393 24.3594H118.787C118.904 27.0053 121.105 28.6209 124.617 28.6209Z" fill="#212529"/>
<path d="M135.257 28.5973C136.919 28.5973 137.973 27.9417 138.839 26.771H138.91V28.2461H142.562V16.2578H138.746V22.9544C138.746 24.3827 137.95 25.3661 136.638 25.3661C135.421 25.3661 134.835 24.6403 134.835 23.329V16.2578H131.042V24.1251C131.042 26.7944 132.494 28.5973 135.257 28.5973Z" fill="#212529"/>
<path d="M144.223 28.2463H148.039V21.5263C148.039 20.098 148.742 19.0911 149.936 19.0911C151.083 19.0911 151.622 19.8404 151.622 21.1282V28.2463H155.439V21.5263C155.439 20.098 156.118 19.0911 157.335 19.0911C158.482 19.0911 159.021 19.8404 159.021 21.1282V28.2463H162.838V20.4492C162.838 17.7565 161.479 15.9067 158.763 15.9067C157.218 15.9067 155.93 16.5623 154.994 18.0141H154.947C154.338 16.7263 153.144 15.9067 151.575 15.9067C149.842 15.9067 148.695 16.7263 147.946 17.9672H147.876V16.258H144.223V28.2463Z" fill="#212529"/>
<path d="M24.459 1.92879L20.6219 0.900635L17.3884 12.9685L14.4691 2.07355L10.6319 3.10171L13.786 14.8729L5.92981 7.01671L3.12084 9.82568L11.7381 18.443L1.00667 15.5675L-0.0214844 19.4046L11.704 22.5465C11.5698 21.9674 11.4987 21.3641 11.4987 20.7442C11.4987 16.3563 15.0558 12.7992 19.4437 12.7992C23.8316 12.7992 27.3887 16.3563 27.3887 20.7442C27.3887 21.3601 27.3185 21.9597 27.1859 22.5353L37.8422 25.3907L38.8703 21.5536L27.0982 18.3992L37.8304 15.5235L36.8022 11.6865L25.0306 14.8406L32.8868 6.98446L30.0778 4.17549L21.5801 12.6733L24.459 1.92879Z" fill="#0056B3"/>
<path d="M27.1755 22.5798C26.8465 23.9707 26.152 25.2201 25.199 26.2212L32.919 33.9413L35.728 31.1323L27.1755 22.5798Z" fill="#0056B3"/>
<path d="M25.1207 26.302C24.1562 27.2871 22.9374 28.0222 21.5706 28.401L24.3797 38.8849L28.2168 37.8567L25.1207 26.302Z" fill="#0056B3"/>
<path d="M21.4271 28.4394C20.7929 28.6024 20.1283 28.6891 19.4433 28.6891C18.7094 28.6891 17.9988 28.5896 17.3242 28.4033L14.5125 38.8968L18.3495 39.9249L21.4271 28.4394Z" fill="#0056B3"/>
<path d="M17.1893 28.3647C15.8434 27.967 14.6462 27.2225 13.7014 26.2346L5.9624 33.9736L8.77137 36.7826L17.1893 28.3647Z" fill="#0056B3"/>
<path d="M13.6363 26.1661C12.7077 25.172 12.0313 23.9392 11.7094 22.5698L1.01831 25.4345L2.04646 29.2716L13.6363 26.1661Z" fill="#0056B3"/>
</g>
<defs>
<clipPath id="clip0_8395_5108">
<rect width="163.902" height="40" fill="white"/>
</clipPath>
</defs>
</svg>
