<svg width="24" height="24" viewBox="0 0 24 24" fill="none" xmlns="http://www.w3.org/2000/svg">
<path d="M12.0273 0H11.9727C5.36035 0 0 5.36035 0 11.9727V12.0273C0 18.6397 5.36035 24 11.9727 24H12.0273C18.6397 24 24 18.6397 24 12.0273V11.9727C24 5.36035 18.6397 0 12.0273 0Z" fill="#0056B3"/>
<g clip-path="url(#clip0_8353_610)">
<path d="M13.5537 10.9345C13.508 10.9345 13.464 10.9169 13.4309 10.8854C13.3978 10.8539 13.3781 10.8109 13.3758 10.7653C13.3455 10.1604 13.0604 9.86417 12.4786 9.83288C12.4323 9.8292 12.3892 9.80755 12.3586 9.77256C12.3279 9.73757 12.3122 9.692 12.3147 9.64558C12.3172 9.59916 12.3378 9.55555 12.372 9.52407C12.4062 9.49258 12.4514 9.4757 12.4979 9.47704C13.2656 9.51932 13.6924 9.95763 13.7317 10.7476C13.7329 10.7709 13.7295 10.7943 13.7216 10.8164C13.7137 10.8384 13.7016 10.8587 13.6859 10.876C13.6702 10.8934 13.6512 10.9075 13.63 10.9175C13.6089 10.9275 13.5859 10.9333 13.5625 10.9345H13.5537Z" fill="white"/>
<path d="M14.4643 11.241H14.4686C14.5152 11.2409 14.56 11.2226 14.5933 11.1899C14.6265 11.1572 14.6457 11.1128 14.6466 11.0662C14.6623 10.3704 14.4493 9.77791 14.021 9.30958C13.5928 8.84125 12.9904 8.57548 12.2305 8.51987C12.1833 8.51642 12.1366 8.53187 12.1008 8.56282C12.0649 8.59377 12.0429 8.63768 12.0394 8.6849C12.036 8.73211 12.0514 8.77876 12.0824 8.81459C12.1133 8.85041 12.1572 8.87248 12.2045 8.87593C12.8798 8.9254 13.3863 9.1453 13.7581 9.55083C14.13 9.95636 14.304 10.4496 14.2903 11.0588C14.2892 11.106 14.3069 11.1518 14.3396 11.1859C14.3722 11.2201 14.4171 11.2399 14.4643 11.241Z" fill="white"/>
<path d="M15.4049 11.6068C15.3578 11.6068 15.3127 11.5881 15.2793 11.555C15.2459 11.5219 15.227 11.4769 15.2266 11.4299C15.2183 10.3403 14.9045 9.50812 14.267 8.88607C13.6372 8.27291 12.8415 7.95829 11.9018 7.95153C11.8784 7.95144 11.8552 7.94675 11.8336 7.93772C11.812 7.92868 11.7924 7.91548 11.7759 7.89887C11.7426 7.86533 11.724 7.81992 11.7242 7.77265C11.7243 7.72538 11.7433 7.68011 11.7768 7.6468C11.8104 7.61349 11.8558 7.59488 11.9031 7.59505H11.9046C12.9392 7.60266 13.8178 7.9511 14.5159 8.63108C15.2141 9.31106 15.5741 10.2536 15.5834 11.4277C15.5837 11.475 15.5653 11.5204 15.5321 11.5541C15.499 11.5877 15.4538 11.6069 15.4066 11.6072L15.4049 11.6068Z" fill="white"/>
<path d="M12.909 12.9985C12.7741 13.1647 12.5234 13.1435 12.5234 13.1435C10.6917 12.6761 10.2014 10.8211 10.2014 10.8211C10.2014 10.8211 10.1794 10.5706 10.3465 10.4357L10.6775 10.1727C10.8416 10.0462 10.9463 9.73943 10.7792 9.43982C10.6511 9.21493 10.5117 8.9966 10.3617 8.78564C10.216 8.58668 9.87654 8.17924 9.87528 8.17798C9.71158 7.98493 9.47089 7.94011 9.21709 8.07226C9.21633 8.07226 9.21527 8.0726 9.21426 8.07293C9.21332 8.07323 9.21242 8.07353 9.21181 8.07353C8.95938 8.21892 8.73177 8.40364 8.53755 8.62072C8.53689 8.62205 8.53623 8.62268 8.53556 8.62331C8.53496 8.62389 8.53435 8.62447 8.53374 8.62558C8.37695 8.81475 8.28721 9.00018 8.26451 9.18187C8.25979 9.20866 8.25816 9.2359 8.25964 9.26306C8.2588 9.3433 8.27101 9.42313 8.29581 9.49945L8.30448 9.50537C8.38358 9.78616 8.58154 10.2539 9.01173 11.0336C9.25779 11.4847 9.54157 11.9141 9.86005 12.3173C10.0196 12.5194 10.1906 12.7122 10.3723 12.8947C10.3745 12.8969 10.3766 12.8991 10.3788 12.9012C10.3831 12.9056 10.3874 12.9099 10.3918 12.9141L10.4501 12.9725C10.6327 13.1541 10.8256 13.3251 11.0277 13.4846C11.4311 13.803 11.8607 14.0867 12.3119 14.3327C13.0917 14.7627 13.56 14.9606 13.8404 15.0397L13.8464 15.0484C13.9227 15.0732 14.0025 15.0855 14.0828 15.0847C14.11 15.0861 14.1372 15.0843 14.164 15.0797C14.3461 15.0581 14.5314 14.9685 14.7201 14.8109C14.7212 14.8103 14.7218 14.8097 14.7223 14.8091C14.723 14.8084 14.7236 14.8078 14.7249 14.8071C14.9421 14.6129 15.1269 14.3854 15.2725 14.1331C15.2725 14.1325 15.2727 14.1315 15.273 14.1306C15.2733 14.1296 15.2736 14.1285 15.2736 14.1278C15.4057 13.8741 15.3609 13.6334 15.1667 13.4696C15.1665 13.4696 15.1507 13.4565 15.1239 13.4345C15.0138 13.3438 14.7189 13.1009 14.5589 12.9833C14.3481 12.8333 14.1299 12.694 13.9052 12.5659C13.6053 12.3989 13.299 12.5035 13.1721 12.6676L12.909 12.9985Z" fill="white"/>
<path fill-rule="evenodd" clip-rule="evenodd" d="M17.1741 6.44778C16.8238 6.12471 15.4085 5.09755 12.2559 5.0836C12.2559 5.0836 8.53818 4.85948 6.72585 6.52136C5.71701 7.53012 5.36212 9.00615 5.32468 10.8361C5.28725 12.6661 5.23881 16.0956 8.54558 17.0255H8.54875L8.54664 18.4444C8.54664 18.4444 8.52549 19.0189 8.90386 19.136C9.28582 19.2546 9.53609 18.9701 9.86244 18.5992C9.92713 18.5257 9.99481 18.4487 10.0671 18.3709C10.3069 18.1125 10.6381 17.733 10.8877 17.4429C13.1493 17.6332 14.8886 17.1982 15.0862 17.134C15.1269 17.1207 15.1847 17.1061 15.2563 17.0879C15.9869 16.9021 18.1642 16.3487 18.5469 13.2258C18.9807 9.69121 18.3371 7.45549 17.1741 6.44778ZM17.5573 12.9723C17.2379 15.5504 15.507 15.953 14.8834 16.0981C14.8144 16.1141 14.7589 16.127 14.7205 16.1394C14.5561 16.1922 13.0285 16.5722 11.1075 16.4468C11.1075 16.4468 9.67604 18.1732 9.22893 18.622C9.15914 18.6922 9.07708 18.7206 9.0223 18.7066C8.94531 18.6878 8.92416 18.5967 8.92501 18.4635C8.92628 18.2732 8.93728 16.1055 8.93728 16.1055C6.23244 15.3548 6.29553 12.6008 6.33133 11.0378C6.33255 10.9843 6.33375 10.9323 6.33479 10.8818C6.36652 9.35333 6.65373 8.10121 7.50692 7.25906C9.03985 5.87099 12.1977 6.0784 12.1977 6.0784C14.8645 6.09003 16.1424 6.89285 16.4387 7.1618C17.4226 8.00395 17.9238 10.0191 17.5573 12.9714V12.9723Z" fill="white"/>
</g>
<defs>
<clipPath id="clip0_8353_610">
<rect width="14.5816" height="14.5773" fill="white" transform="translate(4.70898 4.71094)"/>
</clipPath>
</defs>
</svg>
