<svg width="20" height="21" viewBox="0 0 20 21" fill="none" xmlns="http://www.w3.org/2000/svg">
<path d="M14.2117 1.23747C14.3427 0.844533 14.1304 0.419763 13.7375 0.288723C13.3445 0.157683 12.9198 0.370003 12.7887 0.762943L12.0387 3.01192C11.9077 3.40486 12.12 3.82963 12.5129 3.96067C12.9059 4.09171 13.3306 3.87939 13.4617 3.48645L14.2117 1.23747ZM18.7803 1.21988C19.0732 1.51278 19.0732 1.98765 18.7803 2.28054L16.2803 4.78054C15.9874 5.07344 15.5126 5.07344 15.2197 4.78054C14.9268 4.48765 14.9268 4.01278 15.2197 3.71988L17.7197 1.21988C18.0126 0.926993 18.4874 0.926993 18.7803 1.21988ZM6.07629 3.31838C6.78611 1.84518 8.7547 1.54566 9.8706 2.74109L16.8769 10.2471C17.9679 11.4159 17.5809 13.3117 16.119 13.9594L12.6991 15.4746C12.8932 15.9447 13.0003 16.46 13.0003 17.0002C13.0003 19.2094 11.2095 21.0002 9.0003 21.0002C7.4048 21.0002 6.0275 20.0661 5.38545 18.7149L3.96799 19.3429C3.30531 19.6365 2.53118 19.504 2.00386 19.0067L0.565122 17.6499C-0.00562781 17.1116 -0.162048 16.2657 0.178482 15.559L6.07629 3.31838ZM6.75795 18.1068C7.1662 18.9324 8.0169 19.5002 9.0003 19.5002C10.3811 19.5002 11.5003 18.3809 11.5003 17.0002C11.5003 16.6763 11.4387 16.3667 11.3266 16.0826L6.75795 18.1068ZM8.774 3.76462C8.3781 3.34042 7.6795 3.4467 7.4276 3.96947L1.5298 16.2101C1.47304 16.3279 1.49912 16.4689 1.59425 16.5586L3.03299 17.9154C3.12088 17.9983 3.24992 18.0204 3.36038 17.9714L15.5114 12.5879C16.0302 12.3581 16.1675 11.6854 15.7803 11.2706L8.774 3.76462ZM16 7.24948C16 6.83527 16.3358 6.49948 16.75 6.49948H18.75C19.1642 6.49948 19.5 6.83527 19.5 7.24948C19.5 7.66369 19.1642 7.99948 18.75 7.99948H16.75C16.3358 7.99948 16 7.66369 16 7.24948Z" fill="#8C969E"/>
</svg>
