<svg width="25" height="24" viewBox="0 0 25 24" fill="none" xmlns="http://www.w3.org/2000/svg">
<path d="M7.38995 2.541L8.55695 2.18924C9.87946 1.7906 11.2924 2.43483 11.8588 3.69466L12.7605 5.70038C13.2432 6.77421 12.9888 8.03622 12.1278 8.83917L10.6335 10.2327C10.5898 10.2734 10.5621 10.3284 10.5555 10.3878C10.5111 10.7849 10.7804 11.5583 11.4006 12.6326C11.8517 13.4139 12.2599 13.9617 12.6074 14.2699C12.8495 14.4846 12.9828 14.531 13.0395 14.5141L15.0499 13.8995C16.1755 13.5554 17.3953 13.9657 18.084 14.9202L19.3647 16.6952C20.1708 17.8124 20.0258 19.3537 19.0256 20.301L18.1392 21.1404C17.1828 22.0462 15.8212 22.3837 14.5525 22.0296C11.7984 21.2609 9.32909 18.9367 7.11722 15.1057C4.90227 11.2693 4.12508 7.96478 4.84153 5.19299C5.1694 3.92451 6.13553 2.91912 7.38995 2.541ZM7.82285 3.97717C7.0702 4.20404 6.49052 4.80728 6.2938 5.56837C5.69115 7.89988 6.38001 10.8288 8.41626 14.3557C10.4498 17.8778 12.6387 19.9381 14.9557 20.5848C15.717 20.7973 16.5339 20.5948 17.1078 20.0513L17.9941 19.2119C18.4488 18.7813 18.5147 18.0807 18.1483 17.5729L16.8676 15.7979C16.5545 15.3641 16 15.1775 15.4884 15.334L13.4731 15.9501C12.3034 16.2988 11.2417 15.3573 10.1016 13.3826C9.3333 12.0519 8.97521 11.0232 9.06478 10.2213C9.11118 9.80578 9.30475 9.42068 9.61047 9.13559L11.1048 7.74214C11.4962 7.37716 11.6118 6.80352 11.3924 6.31542L10.4907 4.3097C10.2333 3.73705 9.59099 3.44421 8.98985 3.62541L7.82285 3.97717Z" fill="#8C969E"/>
</svg>
