<svg width="24" height="24" viewBox="0 0 24 24" fill="none" xmlns="http://www.w3.org/2000/svg">
<path d="M12.0273 0H11.9727C5.36034 0 0 5.36035 0 11.9727V12.0273C0 18.6397 5.36034 24 11.9727 24H12.0273C18.6397 24 24 18.6397 24 12.0273V11.9727C24 5.36035 18.6397 0 12.0273 0Z" fill="#0056B3"/>
<path d="M4.54591 11.5916C4.57954 11.5748 4.61319 11.5588 4.64598 11.5436C5.21607 11.2796 5.79373 11.0324 6.37054 10.7852C6.40165 10.7852 6.45377 10.7491 6.4832 10.7373C6.52776 10.7179 6.57233 10.6994 6.6169 10.6801L6.87336 10.57C7.04489 10.4968 7.21557 10.4237 7.3871 10.3505C7.72932 10.2042 8.07154 10.0579 8.41376 9.91074C9.0982 9.61813 9.78349 9.32468 10.4679 9.03207C11.1524 8.73946 11.8377 8.446 12.5221 8.15339C13.2065 7.86078 13.8918 7.56733 14.5763 7.27472C15.2607 6.98211 15.946 6.68865 16.6304 6.39604C16.7826 6.33046 16.9474 6.23292 17.1105 6.20433C17.2476 6.17995 17.3813 6.13286 17.5192 6.1068C17.7807 6.05719 18.0691 6.03701 18.3197 6.14547C18.4063 6.18331 18.4861 6.23628 18.5526 6.30271C18.8704 6.61718 18.8258 7.13346 18.7586 7.57574C18.2902 10.6582 17.8219 13.7416 17.3527 16.8241C17.2888 17.247 17.2013 17.7112 16.8675 17.9786C16.585 18.2048 16.1831 18.23 15.8341 18.1341C15.4852 18.0374 15.1775 17.8348 14.8756 17.6355C13.6236 16.8064 12.3707 15.9774 11.1187 15.1483C10.8211 14.9516 10.4898 14.6943 10.4932 14.3369C10.4948 14.1217 10.6235 13.9299 10.7547 13.7593C11.8427 12.3399 13.4125 11.3645 14.5805 10.0108C14.7453 9.81993 14.8748 9.47519 14.6486 9.36504C14.514 9.29945 14.3593 9.38858 14.2366 9.47351C12.6928 10.5456 11.1499 11.6185 9.60608 12.6905C9.10242 13.0403 8.57437 13.4002 7.96729 13.486C7.42411 13.5633 6.87757 13.412 6.35204 13.2573C5.91144 13.1278 5.47167 12.9949 5.0336 12.8579C4.80068 12.7856 4.5602 12.7074 4.38026 12.5434C4.20033 12.3794 4.09692 12.1036 4.20538 11.885C4.27349 11.748 4.40551 11.6614 4.54424 11.5907L4.54591 11.5916Z" fill="white"/>
</svg>
