<svg width="24" height="24" viewBox="0 0 24 24" fill="none" xmlns="http://www.w3.org/2000/svg">
<path d="M23.9983 12.0004C23.9983 18.0612 19.5059 23.0717 13.6698 23.8848C13.1242 23.9605 12.5659 24 11.9992 24C11.345 24 10.7026 23.9479 10.0771 23.847C4.36379 22.9271 0 17.9729 0 12.0004C0 5.37295 5.37276 0 12 0C18.6272 0 24 5.37295 24 12.0004H23.9983Z" fill="#0056B3"/>
<path d="M4.86651 5.29224L10.4007 12.6916L4.83203 18.7078H6.08568L10.9615 13.4408L14.9007 18.7078H19.1661L13.3208 10.8922L18.5044 5.29224H17.2508L12.7608 10.143L9.13276 5.29224H4.86734H4.86651ZM6.70955 6.21548H8.66864L17.3214 17.7845H15.3623L6.70955 6.21548Z" fill="white"/>
</svg>
